<svg width="1096" height="246" viewBox="0 0 1096 246" fill="none" xmlns="http://www.w3.org/2000/svg">
<path d="M2.26458 199.659C0.754859 199.659 0 198.979 0 197.619V197.166C0 196.411 0.301943 195.429 0.90583 194.22L68.3902 91.1137C70.8058 87.3369 73.2213 83.6357 75.6369 80.0099C78.0524 76.2332 80.5434 72.4564 83.11 68.6796V68.4529C78.8828 68.604 74.5801 68.6796 70.2019 68.6796C65.8237 68.6796 61.4455 68.6796 57.0673 68.6796H9.73768C8.22796 68.6796 7.4731 67.9242 7.4731 66.4135V53.4969C7.4731 51.9861 8.22796 51.2308 9.73768 51.2308H111.417C112.927 51.2308 113.682 51.9106 113.682 53.2703V53.7235C113.682 54.4788 113.38 55.4608 112.776 56.6694L46.1974 157.51C43.4799 161.74 40.7624 165.894 38.0449 169.973C35.4784 174.052 32.7609 178.131 29.8924 182.21V182.436C34.8745 182.285 39.8565 182.21 44.8386 182.21C49.8207 182.21 54.8028 182.21 59.7848 182.21H106.209C107.718 182.21 108.473 182.965 108.473 184.476V197.392C108.473 198.903 107.718 199.659 106.209 199.659H2.26458Z" fill="black"/>
<path d="M172.228 202.378C157.735 202.378 146.563 198.979 138.712 192.181C131.013 185.382 127.163 175.336 127.163 162.042V130.317C127.163 115.965 131.013 105.088 138.712 97.6853C146.412 90.1317 157.584 86.3549 172.228 86.3549C186.872 86.3549 197.969 90.0562 205.517 97.4587C213.217 104.71 217.067 115.285 217.067 129.184V146.859C217.067 148.37 216.312 149.125 214.802 149.125H146.412V156.377C146.412 166.498 148.526 173.901 152.753 178.584C156.98 183.116 163.849 185.382 173.36 185.382C180.456 185.382 185.891 184.249 189.665 181.983C193.591 179.566 195.553 176.091 195.553 171.559C195.553 169.898 196.384 169.067 198.044 169.067H212.764C213.972 169.067 214.727 169.746 215.029 171.106C215.633 180.775 212.085 188.404 204.385 193.993C196.686 199.583 185.967 202.378 172.228 202.378ZM146.412 132.583H197.818V131.223C197.818 121.706 195.704 114.681 191.477 110.149C187.25 105.617 180.909 103.35 172.455 103.35C163.698 103.35 157.131 105.692 152.753 110.375C148.526 115.059 146.412 122.083 146.412 131.45V132.583Z" fill="black"/>
<path d="M297.132 202.378C291.395 202.378 285.432 201.622 279.242 200.112C273.052 198.601 268.07 196.562 264.296 193.993L263.616 177.678C267.994 180.095 272.825 181.983 278.109 183.343C283.393 184.702 288.376 185.382 293.056 185.382C301.812 185.382 308.228 182.814 312.305 177.678C316.381 172.541 318.419 164.837 318.419 154.564V129.637C318.419 120.573 316.834 113.925 313.663 109.695C310.493 105.465 305.813 103.35 299.623 103.35C294.339 103.35 288.979 104.937 283.544 108.109C278.26 111.131 271.24 116.569 262.484 124.425V106.296C267.617 101.613 272.373 97.8364 276.751 94.966C281.28 91.9446 285.658 89.754 289.885 88.3944C294.263 87.0347 298.868 86.3549 303.699 86.3549C314.871 86.3549 323.326 89.8296 329.062 96.7789C334.799 103.728 337.668 114.303 337.668 128.504V156.83C337.668 171.484 334.195 182.739 327.251 190.594C320.306 198.45 310.266 202.378 297.132 202.378ZM251 238.886C250 238.386 248 238.397 248 236.886L247.538 114.681C247.538 111.206 247.387 107.354 247.085 103.124C246.783 98.8938 246.405 95.1171 245.952 91.7935C245.801 89.9807 246.556 89.0742 248.217 89.0742H262.031C263.541 89.0742 264.371 89.8296 264.522 91.3403C264.824 92.3978 265.126 93.9085 265.428 95.8724C265.73 97.8364 265.956 99.8003 266.107 101.764C266.258 103.577 266.258 104.861 266.107 105.617L266.787 116.947V239.315C266.787 240.826 266.032 241.581 264.522 241.581L251 238.886Z" fill="black"/>
<path d="M444.128 199.659C442.618 199.659 441.863 198.903 441.863 197.392V125.105C441.863 117.702 440.353 112.264 437.334 108.789C434.315 105.163 429.71 103.35 423.52 103.35C417.481 103.35 411.367 105.239 405.177 109.016C398.987 112.641 392.269 118.382 385.022 126.238L385.249 108.562C390.231 103.275 394.986 99.0449 399.516 95.8724C404.045 92.5489 408.574 90.1317 413.103 88.621C417.783 87.1103 422.69 86.3549 427.823 86.3549C438.693 86.3549 446.921 89.5274 452.507 95.8724C458.244 102.217 461.112 111.659 461.112 124.198V197.392C461.112 198.903 460.357 199.659 458.847 199.659H444.128ZM371.435 199.659C369.925 199.659 369.17 198.903 369.17 197.392V47.1519C369.17 45.6411 369.925 44.8858 371.435 44.8858H386.155C387.664 44.8858 388.419 45.6411 388.419 47.1519V197.392C388.419 198.903 387.664 199.659 386.155 199.659H371.435Z" fill="black"/>
<path d="M508.166 244.581C506.291 244.581 506.745 242.699 507.5 240.886L524.244 198.299L482.349 91.7935C481.595 89.9807 482.123 89.0742 483.935 89.0742H500.013C501.221 89.0742 502.051 89.6785 502.504 90.8871L522.885 145.726C524.697 150.409 526.433 155.244 528.094 160.229C529.906 165.214 531.642 170.124 533.302 174.958H533.529C535.19 170.124 536.926 165.214 538.737 160.229C540.7 155.244 542.512 150.409 544.172 145.726L564.554 90.8871C565.007 89.6785 565.912 89.0742 567.271 89.0742H582.444C584.406 89.0742 585.01 89.9807 584.255 91.7935L526.962 239.768C526.509 240.977 525.5 241.386 524.471 241.581L508.166 244.581Z" fill="black"/>
<path d="M608.729 199.659C607.219 199.659 606.464 198.903 606.464 197.392V116.04C606.464 111.81 606.313 107.732 606.011 103.804C605.86 99.7247 605.483 95.6458 604.879 91.5669C604.577 89.9051 605.332 89.0742 607.144 89.0742H620.958C622.467 89.0742 623.298 89.754 623.449 91.1137C624.052 93.984 624.505 97.3076 624.807 101.084C625.109 104.71 625.26 107.807 625.26 110.375L625.713 122.385V197.392C625.713 198.903 624.958 199.659 623.449 199.659H608.729ZM623.222 129.184L622.769 110.602C625.94 105.919 629.563 101.764 633.639 98.1385C637.866 94.5128 642.094 91.6424 646.321 89.5274C650.699 87.4124 654.7 86.3549 658.323 86.3549C661.04 86.3549 663.079 86.5815 664.437 87.0347C665.645 87.3369 666.324 88.0922 666.475 89.3008C666.777 92.4733 666.853 95.7214 666.702 99.045C666.702 102.369 666.475 105.541 666.023 108.562C665.721 110.224 664.739 110.829 663.079 110.375C661.871 110.073 660.588 109.847 659.229 109.695C657.87 109.544 656.436 109.469 654.926 109.469C651.152 109.469 647.378 110.3 643.603 111.962C639.829 113.623 636.206 115.965 632.733 118.986C629.261 121.857 626.091 125.256 623.222 129.184Z" fill="black"/>
<path d="M692.819 199.659C691.309 199.659 690.554 198.903 690.554 197.392V53.4969C690.554 51.9861 691.309 51.2308 692.819 51.2308H773.438C774.948 51.2308 775.702 51.9861 775.702 53.4969V66.4135C775.702 67.9242 774.948 68.6796 773.438 68.6796H709.803V118.08H764.832C766.342 118.08 767.097 118.835 767.097 120.346V132.583C767.097 134.094 766.342 134.849 764.832 134.849H709.803V197.392C709.803 198.903 709.048 199.659 707.539 199.659H692.819Z" fill="black"/>
<path d="M894.65 202.378C879.402 202.378 867.777 198.677 859.776 191.274C851.925 183.872 848 172.617 848 157.51V131.223C848 116.116 851.925 104.861 859.776 97.4587C867.626 90.0562 879.251 86.3549 894.65 86.3549C909.898 86.3549 921.448 90.0562 929.298 97.4587C937.3 104.861 941.301 116.116 941.301 131.223V157.51C941.301 172.617 937.375 183.872 929.525 191.274C921.674 198.677 910.049 202.378 894.65 202.378ZM894.65 185.382C904.312 185.382 911.257 182.965 915.484 178.131C919.863 173.146 922.052 165.667 922.052 155.697V133.036C922.052 123.065 919.863 115.663 915.484 110.829C911.257 105.843 904.312 103.35 894.65 103.35C884.988 103.35 877.968 105.843 873.59 110.829C869.363 115.663 867.249 123.065 867.249 133.036V155.697C867.249 165.667 869.363 173.146 873.59 178.131C877.968 182.965 884.988 185.382 894.65 185.382Z" fill="black"/>
<path d="M980.814 199.659C979.606 199.659 978.776 198.979 978.323 197.619L945.487 91.5669C945.034 89.9051 945.637 89.0742 947.298 89.0742H963.15C964.358 89.0742 965.188 89.754 965.641 91.1137L983.531 153.657C984.89 158.492 986.249 163.326 987.608 168.16C988.966 172.994 990.325 177.829 991.684 182.663H992.137C993.646 177.98 995.156 173.297 996.666 168.613C998.176 163.93 999.685 159.247 1001.2 154.564L1013.42 116.72L1006.63 93.833C1006.18 92.1712 1006.78 91.3403 1008.44 91.3403H1022.71C1024.07 91.3403 1024.9 91.9446 1025.2 93.1532L1041.96 154.79C1043.17 159.474 1044.37 164.157 1045.58 168.84C1046.79 173.372 1048 177.98 1049.2 182.663H1049.66C1051.02 177.829 1052.3 173.07 1053.51 168.387C1054.87 163.552 1056.22 158.794 1057.58 154.111L1075.7 91.1137C1076.15 89.754 1076.98 89.0742 1078.19 89.0742H1094.04C1095.7 89.0742 1096.31 89.9051 1095.85 91.5669L1062.79 197.619C1062.34 198.979 1061.51 199.659 1060.3 199.659H1039.69C1038.49 199.659 1037.65 199.054 1037.2 197.846L1030.18 174.732C1028.67 169.595 1027.24 164.383 1025.88 159.096C1024.52 153.808 1023.09 148.143 1021.58 142.1H1021.12C1019.61 148.143 1018.03 153.733 1016.37 158.869C1014.86 164.006 1013.27 169.067 1011.61 174.052L1003.91 197.846C1003.46 199.054 1002.63 199.659 1001.42 199.659H980.814Z" fill="black"/>
<path d="M758 245.507C756 245.5 757.245 241.6 758 239.787L788.203 161.29L814.388 91.813C814.841 90.6044 815.747 90.0001 817.106 90.0001L832.278 90.0001C834.241 90.0001 834.845 90.9066 834.09 92.7194L776.796 240.694C776.343 241.902 776.695 241.993 774 242.5L758 245.507Z" fill="black"/>
<path d="M832.689 100.264L821.652 228.463C813.995 220.111 813.325 149.95 819.529 140.51C825.733 131.069 826.409 98.3036 826.409 98.3036L832.689 100.264Z" fill="black"/>
<path d="M821.282 80.0237L734.105 8.54661C744.237 4.53566 795.514 36.7104 799.068 47.5525C802.622 58.3945 826.042 74.4445 826.042 74.4445L821.282 80.0237Z" fill="black"/>
<path d="M842.253 77.4792L940.467 20.7569C937.992 33.1207 887.385 71.1063 877.628 69.7047C867.87 68.303 843.772 85.0188 843.772 85.0188L842.253 77.4792Z" fill="black"/>
<path d="M821.515 76.861C825.818 69.7552 834.004 67.9488 839.8 72.8261C845.597 77.7035 846.807 87.4177 842.504 94.5234C838.202 101.629 830.015 103.436 824.219 98.5583C818.423 93.681 817.212 83.9667 821.515 76.861Z" fill="black"/>
<path d="M784.5 81.5C788 80.5 830.694 70.0001 832.665 70.0001C834.637 70.0001 834.242 101 832.665 101C831.088 101 794.5 99.5 789.5 99C784.5 98.5 781.5 86.5 781.5 86.5C781.5 86.5 781 82.5 784.5 81.5Z" fill="black"/>
</svg>
